<svg height="24" viewBox="0 0 24 24" width="24" xmlns="http://www.w3.org/2000/svg" xmlns:sketch="http://www.bohemiancoding.com/sketch/ns"><g id="Page-1" fill="none" fill-rule="evenodd"><g id="ball_football_sport" transform="translate(-2 -1)"><circle id="Oval-67" cx="14" cy="13" fill="#ecf0f1" r="12"/><path id="Oval-68" d="m26 13c0-6.627417-5.372583-12-12-12s-12 5.372583-12 12 5.372583 12 12 12 12-5.372583 12-12zm-23.9 0c0-6.57218852 5.32781148-11.9 11.9-11.9 6.5721885 0 11.9 5.32781148 11.9 11.9 0 6.5721885-5.3278115 11.9-11.9 11.9-6.57218852 0-11.9-5.3278115-11.9-11.9z" fill="#979797"/><path id="Line" d="m19.4046285 21.006695 2.9651063-.6723076.1373845-.0311505.0445206-.1336516 2.4193115-7.2628174.0020528-.1515657-.8081055-2.6645508-.0697516-.22999064-.0912966.0238033-1.0004833-2.65653545-.0774645-.10684951-5.6776123-4.55737305-.1949609-.15649355-.3129871.38992188.1949609.15649355 5.6776123 4.55737305-.0774645-.10684951.9818873 2.60715853-6.4695713 1.6867796-.2419129.0630727.1261455.4838257.2419129-.0630727 6.8148193-1.7767944-.2605688-.1459715-.0310992.0117123.7974612 2.6294537.0020528-.1515657-2.4193115 7.2628174.181905-.1648022-2.9977452.6797081-.0924542-.0619835-3.1011411-5.3719495-.0687986-.1191763-.1374941-.0056254-3.5057373-.1434326-.1494406-.0061142-.0760494.128788-3.61804197 6.1270752.31008042-.1042073-3.13024902-1.282959.14210438.1515032-2.38891602-7.0904541.00008757.1593822.84375-2.5134277-.29181.1643573 9.91894534 2.2287598.3048077.0684894v-.3124077-9.86425779-.25h-.25-2.9718017l-.158478.05664872-5.83813481 4.78515625-.19335128.15847803.31695605.38670255.19335128-.15847803 5.83813476-4.78515625-.158478.05664873h2.9718017l-.25-.25v9.86425779l.3048078-.2439182-9.91894532-2.2287598-.22003822-.049442-.07177177.2137993-.84375 2.5134278.00008756.1593822 2.38891602 7.0904541.14210438.1515032 3.13024903 1.2829589.200114.0820185.10996641-.1862258 3.61804201-6.1270752-.22549.1226739 3.5057373.1434326-.2062927-.1248017 3.2226527 5.5824378-1.731492 2.5826794.2076517-.1107852h-6.3586426-.25v.5h.25 6.3586426.1333786l.0742731-.1107852zm-.3281055-.4084934-.0448907-.0196252.0684537-.0155211z" fill="#979797"/><path id="Polygon-1" d="m16.7926137 1.32665328 1.0116124 1.94588921-3.8042261 1.72745751-3.8042261-1.72745751 1.0116124-1.94588921c.8960791-.21357787 1.8311413-.32665328 2.7926137-.32665328s1.8965346.11307541 2.7926137.32665328zm9.1908949 11.03876392-1.5426697 1.5681141-2.8184802-3.0842203.4673392-4.15184768 2.356756.39305961c.8909531 1.5715944 1.4374984 3.36408617 1.5370547 5.27489427zm-8.0848142 11.9870538-1.430467-.7141824 2.0623095-3.6336105 4.0930576-.8385255.2816343 1.8774286c-1.3476704 1.4911021-3.0645747 2.6421249-5.0065344 3.3088898zm-7.7650221.0110611 1.3981003-.6980229-2.06230947-3.6336105-4.09305759-.8385255-.27813199 1.8540814c1.35462802 1.4974976 3.08183259 2.651595 5.03539875 3.3160775zm-8.11718093-11.9981149 1.54266969 1.5681141 2.81848023-3.0842203-.46733922-4.15184768-2.35675599.39305961c-.89095304 1.5715944-1.43749835 3.36408617-1.53705471 5.27489427zm11.98350863-3.3654172 3.8042261 2.763932-1.4530851 4.472136h-4.702282l-1.4530851-4.472136z" fill="#2c3e50"/></g></g></svg>