<svg clip-rule="evenodd" fill-rule="evenodd" height="1.707in" image-rendering="optimizeQuality" shape-rendering="geometricPrecision" text-rendering="geometricPrecision" viewBox="0 0 1707 1707" width="1.707in" xmlns="http://www.w3.org/2000/svg"><g id="Layer_x0020_1"><g id="_358598242352"><circle cx="853" cy="853" fill="#dee5ee" r="823"/><path d="m853 30c-454 0-823 369-823 823 0 239 102 454 264 605 111 56 237 87 370 87 455 0 824-368 824-823 0-239-102-454-265-604-111-56-237-88-370-88z" fill="#fff"/><path d="m853 60c-219 0-417 89-561 232-143 144-232 342-232 561s89 418 232 561c144 144 342 233 561 233s418-89 561-233c144-143 233-342 233-561s-89-417-233-561c-143-143-342-232-561-232zm-603 190c154-154 368-250 603-250 236 0 449 96 604 250 154 154 250 368 250 603 0 236-96 449-250 604-155 154-368 250-604 250-235 0-449-96-603-250-154-155-250-368-250-604 0-235 96-449 250-603z" fill="#392d4f" fill-rule="nonzero"/><path d="m853 581 143 104 143 104-54 168-55 168h-177-176l-55-168-55-168 143-104z" fill="#666"/><path d="m871 557 143 104 143 104 17 13-6 20-55 168-55 168-6 21h-22-177-176-22l-7-21-54-168-55-168-7-20 18-13 143-104 143-104 17-13zm108 152-126-91-125 91-125 92 47 147 48 147h155 155l48-147 48-147z" fill="#392d4f" fill-rule="nonzero"/><path d="m853 246 194-104 105-56c-93-36-193-56-299-56-105 0-206 20-298 56l105 56z" fill="#666"/><path d="m853 212 180-96 44-24c-25-8-51-14-77-19-47-8-96-13-147-13-50 0-99 5-146 13-27 5-52 11-78 19l45 24zm208-44-194 104-14 8-14-8-193-104-105-56-57-31 60-23c49-19 99-34 152-43 51-10 104-15 157-15 54 0 107 5 158 15 52 9 103 24 152 43l60 23-57 31z" fill="#392d4f" fill-rule="nonzero"/><path d="m1434 675 156 154 85 84c1-20 2-40 2-60 0-193-67-370-178-510l-23 116z" fill="#595959"/><path d="m1434 675 53 53c0-2 1-4 1-6 0-68-9-135-24-198z" fill="#666"/><path d="m1466 665 145 143 36 35c-1-87-17-172-44-250-22-63-51-123-88-177l-9 49zm103 186-156-155-12-11 4-16 42-215 23-117 12-64 41 51c58 74 105 158 136 249 31 88 48 182 48 280 0 9-1 19-1 31s-1 22-2 31l-4 65-46-46z" fill="#392d4f" fill-rule="nonzero"/><path d="m1213 1366-101 195-46 88c186-49 346-163 456-315l-90 10z" fill="#595959"/><path d="m1232 1394-94 181-13 24c64-23 124-54 178-92 56-39 107-84 151-136l-19 2zm-147 153 102-194 7-15 16-1 219-23 90-9 66-7-39 54c-57 79-128 148-209 204-79 55-168 97-264 122l-65 17 31-60z" fill="#392d4f" fill-rule="nonzero"/><path d="m491 1365-218-31-98-14c107 155 265 271 450 325l-39-82z" fill="#595959"/><path d="m491 1365-218-31-98-14 1 1c1 2 3 4 4 6l1 1 15 21c1 2 2 3 4 5 0 1 1 2 2 3s2 3 3 4l3 3c1 2 2 3 3 5l3 3c1 1 2 2 3 4l3 3c1 2 2 3 3 4 2 2 4 5 6 7l3 3c1 2 2 3 3 4s2 2 3 4c1 1 3 2 4 4l3 3c1 1 2 3 4 4 0 1 1 2 2 3 2 1 3 3 5 5 0 0 1 1 2 2 4 5 9 9 13 14 1 0 1 1 2 1 2 2 4 4 5 6 1 0 2 1 2 2 2 1 4 3 5 5l3 2 5 5 1 1c86 43 181 72 281 83z" fill="#666"/><path d="m471 1392-202-28-26-4c43 52 92 98 147 137 54 40 114 72 177 97l-8-18zm-194-87 218 30 16 2 7 15 95 198 39 82 28 60-63-19c-96-27-184-71-262-127-80-57-149-128-204-209l-39-56 67 10z" fill="#392d4f" fill-rule="nonzero"/><path d="m255 666-38-216-17-98c-107 139-170 313-170 501v27l66-62z" fill="#666"/><g fill="#392d4f" fill-rule="nonzero"><path d="m223 656-35-201-5-26c-34 52-61 109-81 169-23 67-37 138-41 212l14-14zm23-211 39 216 2 16-11 11-160 151-65 63-48 45-2-66c-1-4-1-9-1-14v-14c0-95 16-188 45-274 30-89 75-171 131-245l41-54 12 67z"/><path d="m467 1346 186-239 47 36-186 240z"/><path d="m1190 1384-184-241 48-36 183 241z"/><path d="m1445 703-295 114-22-56 295-114z"/><path d="m823 581v-335h60v335z"/><path d="m557 817-313-123 22-55 312 122z"/></g></g></g></svg>