<svg id="Layer_1" enable-background="new 0 0 24 24" height="24" viewBox="0 0 24 24" width="24" xmlns="http://www.w3.org/2000/svg"><path d="m11 0c-6.075 0-11 4.925-11 11s4.925 11 11 11 11-4.925 11-11-4.925-11-11-11zm4.331 18-1.877-3.251 2.02-3.499h3.755l1.397 2.423c-.459 1.652-1.327 3.136-2.497 4.327zm-8.661 0h-2.799c-1.169-1.191-2.037-2.675-2.497-4.327l1.398-2.423h3.754l2.02 3.499zm0-14 1.876 3.25-2.02 3.5h-3.754l-1.398-2.423c.459-1.653 1.327-3.136 2.497-4.327zm8.66 0h2.799c1.17 1.191 2.037 2.674 2.497 4.327l-1.397 2.423h-3.755l-2.02-3.5zm-1.831-2.671 1.397 2.421-1.875 3.25h-4.042l-1.876-3.25 1.397-2.421c.801-.207 1.636-.329 2.5-.329s1.699.122 2.499.329zm-4.999 19.342-1.397-2.422 1.876-3.25h4.041l1.876 3.251-1.397 2.421c-.8.207-1.635.329-2.499.329s-1.699-.122-2.5-.329z"/></svg>