<svg width="16" height="17" viewBox="0 0 16 17" fill="none" xmlns="http://www.w3.org/2000/svg">
<g clip-path="url(#clip0_470_274)">
<path d="M16 8.50391C16 4.08566 12.4183 0.503906 8 0.503906C3.58175 0.503906 0 4.08566 0 8.50391C0 12.4969 2.9255 15.8066 6.75 16.4067V10.8164H4.71875V8.50391H6.75V6.74141C6.75 4.73641 7.94438 3.62891 9.77175 3.62891C10.647 3.62891 11.5625 3.78516 11.5625 3.78516V5.75391H10.5538C9.55994 5.75391 9.25 6.37059 9.25 7.00328V8.50391H11.4688L11.1141 10.8164H9.25V16.4067C13.0745 15.8066 16 12.497 16 8.50391Z" fill="#1976D2"/>
<path d="M11.1141 10.8164L11.4688 8.50391H9.25V7.00328C9.25 6.37053 9.55994 5.75391 10.5538 5.75391H11.5625V3.78516C11.5625 3.78516 10.647 3.62891 9.77169 3.62891C7.94438 3.62891 6.75 4.73641 6.75 6.74141V8.50391H4.71875V10.8164H6.75V16.4067C7.16351 16.4715 7.58144 16.504 8 16.5039C8.41856 16.504 8.83649 16.4715 9.25 16.4067V10.8164H11.1141Z" fill="white"/>
</g>
<defs>
<clipPath id="clip0_470_274">
<rect width="16" height="16" fill="white" transform="translate(0 0.503906)"/>
</clipPath>
</defs>
</svg>
