<svg width="17" height="17" viewBox="0 0 17 17" fill="none" xmlns="http://www.w3.org/2000/svg">
<path d="M15.037 7.19825H14.5V7.17058H8.5V9.83725H12.2677C11.718 11.3896 10.241 12.5039 8.5 12.5039C6.291 12.5039 4.5 10.7129 4.5 8.50392C4.5 6.29492 6.291 4.50392 8.5 4.50392C9.51967 4.50392 10.4473 4.88858 11.1537 5.51692L13.0393 3.63125C11.8487 2.52158 10.256 1.83725 8.5 1.83725C4.81833 1.83725 1.83333 4.82225 1.83333 8.50392C1.83333 12.1856 4.81833 15.1706 8.5 15.1706C12.1817 15.1706 15.1667 12.1856 15.1667 8.50392C15.1667 8.05692 15.1207 7.62058 15.037 7.19825Z" fill="white"/>
<path d="M2.602 5.40092L4.79233 7.00725C5.385 5.53992 6.82033 4.50392 8.5 4.50392C9.51967 4.50392 10.4473 4.88858 11.1537 5.51692L13.0393 3.63125C11.8487 2.52158 10.256 1.83725 8.5 1.83725C5.93933 1.83725 3.71867 3.28292 2.602 5.40092Z" fill="#FF3D00"/>
<path d="M8.5 15.1706C10.222 15.1706 11.7867 14.5116 12.9697 13.4399L10.9063 11.6939C10.2145 12.22 9.36915 12.5046 8.5 12.5039C6.766 12.5039 5.29367 11.3982 4.739 9.85522L2.565 11.5302C3.66833 13.6892 5.909 15.1706 8.5 15.1706Z" fill="#4CAF50"/>
<path d="M15.037 7.19823H14.5V7.17056H8.5V9.83723H12.2677C12.0047 10.576 11.5311 11.2216 10.9053 11.6942L10.9063 11.6936L12.9697 13.4396C12.8237 13.5722 15.1667 11.8372 15.1667 8.5039C15.1667 8.0569 15.1207 7.62056 15.037 7.19823Z" fill="#1976D2"/>
</svg>
