<svg width="133" height="137" viewBox="0 0 133 137" fill="none" xmlns="http://www.w3.org/2000/svg">
<path d="M115.904 189.58L243.68 69.1002C255.835 57.6392 256.239 45.8358 244.942 33.8538L173.274 -42.1542C161.976 -54.1362 150.167 -54.4291 138.012 -42.9681L10.2352 77.5117C-1.86398 88.9145 -2.37918 100.718 8.97668 112.761L80.6472 188.772C91.9449 200.754 103.808 200.986 115.904 189.58ZM107.255 180.055C101.441 185.538 95.2239 185.469 89.5197 179.42L81.5692 170.988L97.9109 155.579C106.516 147.465 106.805 137.633 98.6886 129.025L69.6225 98.1983C61.5061 89.5903 51.676 89.3042 43.0709 97.4179L26.7292 112.826L18.7759 104.392C13.1271 98.4006 13.4237 92.1907 19.2386 86.7078L78.0923 31.2149L96.5714 50.8132C85.5789 65.1352 86.3931 85.5722 99.3341 99.2969C112.275 113.022 132.629 115.035 147.627 104.961L166.106 124.559L107.255 180.055ZM154.18 47.5885C141.177 34.0332 121.162 32.0272 105.997 42.0419L87.4629 22.3849L146.666 -33.4372C152.422 -38.8648 158.697 -38.8515 164.346 -32.8605L172.297 -24.4285L155.955 -9.02001C147.347 -0.903538 147.061 8.92658 155.177 17.5346L184.24 48.3579C192.357 56.9659 202.184 57.2548 210.792 49.1383L227.134 33.7298L235.087 42.1647C240.789 48.2114 240.436 54.4796 234.68 59.9071L175.474 115.732L156.989 96.1278C167.989 81.5777 167.288 61.1441 154.174 47.5827M202.132 39.6072C199.284 42.2933 196.12 42.2004 193.434 39.3516L164.7 8.87733C162.014 6.02854 162.107 2.86491 164.955 0.17879L181.124 -15.0665L218.304 24.3648L202.132 39.6072ZM51.7252 106.943C54.5769 104.254 57.7406 104.347 60.4267 107.196L89.1635 137.673C91.8468 140.519 91.7566 143.686 88.9049 146.374L72.7392 161.617L35.5595 122.186L51.7252 106.943ZM107.714 91.285C103.726 87.082 101.266 81.6612 100.728 75.8925C100.191 70.1238 101.607 64.3418 104.749 59.4743L139.406 96.23C129.289 101.812 116.051 100.128 107.714 91.285ZM145.693 55.4746C153.91 64.4251 154.934 77.6312 148.768 87.4026L114.166 50.7056C124.339 45.0655 137.466 46.638 145.693 55.4746Z" fill="white"/>
</svg>
