<svg width="120" height="137" viewBox="0 0 120 137" fill="none" xmlns="http://www.w3.org/2000/svg">
<path opacity="0.1" d="M69.5 0C61.9784 0 55.1487 0.610758 50.3649 1.54946C48.4996 1.91952 47.0554 2.34675 45.9422 2.75593C47.0554 3.16511 48.4996 3.59234 50.3649 3.9624C55.1487 4.9011 61.9784 5.51186 69.5 5.51186C77.0216 5.51186 83.8513 4.9011 88.6351 3.9624C90.5004 3.59234 91.9446 3.16511 93.0578 2.75593C91.9446 2.34675 90.5004 1.91952 88.6351 1.54946C83.8513 0.610758 77.0216 0 69.5 0ZM39.1727 1.5976C33.4262 4.2753 30.3273 9.42613 31.1095 14.5589C31.7113 18.2656 34.389 21.6322 38.6312 23.3773C41.0682 24.4002 44.0167 24.9418 47.4766 24.9117C51.4781 32.3431 56.8937 38.4807 62.7004 41.339V54.547C57.5857 57.6459 54.1859 64.0844 50.8463 70.7035C62.5199 73.682 76.5102 73.5316 88.1236 70.6734C84.8141 64.0543 81.3842 57.6459 76.2996 54.547V41.339C82.1063 38.4807 87.5219 32.3431 91.5234 24.9117C94.9833 24.9418 97.9318 24.4002 100.369 23.3773C104.611 21.6322 107.289 18.2656 107.89 14.5589C108.673 9.42613 105.574 4.2753 99.8273 1.5976C99.9476 1.95864 100.008 2.34374 100.008 2.75593C100.008 4.0647 99.3158 5.13578 98.5937 5.80972C97.9017 6.48366 97.1195 6.93195 96.247 7.33812C94.5019 8.15045 92.3056 8.7582 89.658 9.27569C84.3929 10.3167 77.3225 10.9274 69.5 10.9274C61.6775 10.9274 54.6071 10.3167 49.342 9.27569C46.6944 8.7582 44.4981 8.15045 42.753 7.33812C41.8805 6.93195 41.0983 6.48366 40.4063 5.80972C39.6842 5.13578 38.9922 4.0647 38.9922 2.75593C38.9922 2.34374 39.0524 1.95864 39.1727 1.5976ZM41.1584 6.50472C41.8504 10.8191 43.1141 15.2027 44.8591 19.3637C43.1742 19.1982 41.8203 18.8492 40.7071 18.3889C37.879 17.2155 36.7357 15.4916 36.4649 13.7225C36.1039 11.3366 37.4578 8.26178 41.1584 6.50472ZM97.8416 6.50472C101.542 8.26178 102.896 11.3366 102.535 13.7225C102.264 15.4916 101.121 17.2155 98.2929 18.3889C97.1797 18.8492 95.8258 19.1982 94.1409 19.3637C95.8859 15.2027 97.1496 10.8191 97.8416 6.50472ZM119.113 72.5688C116.044 72.629 113.065 74.1333 110.478 76.8411C107.59 79.94 105.363 84.6035 104.792 89.989C104.22 95.3745 105.363 100.399 107.529 104.039C109.726 107.71 112.825 109.936 116.345 110.297C119.895 110.689 123.385 109.184 126.303 106.085C129.222 102.986 131.418 98.3229 132.02 92.9374C132.592 87.5519 131.448 82.5275 129.282 78.887C127.056 75.2165 123.987 72.99 120.437 72.629C119.985 72.5688 119.564 72.5688 119.113 72.5688ZM19.8872 72.5688C19.4359 72.5688 18.9846 72.5688 18.5634 72.629C15.0132 73.0201 11.9444 75.2766 9.74805 78.887C7.55173 82.5576 6.40844 87.582 7.01017 92.9675C7.58182 98.353 9.77814 103.016 12.6965 106.115C15.6149 109.184 19.105 110.719 22.6552 110.327C26.2054 109.936 29.2742 107.71 31.4706 104.069C33.6669 100.399 34.8102 95.3745 34.2084 89.989C33.6368 84.6035 31.4405 79.94 28.492 76.8411C25.9647 74.1634 22.9561 72.6591 19.8872 72.5688ZM85.4459 76.811C82.1965 77.4429 78.8569 77.8942 75.4571 78.1348C79.5188 91.3128 86.7095 103.257 94.6524 114.871C96.3372 112.403 98.2026 110.448 100.248 108.883C101.151 108.191 102.084 107.59 103.016 107.078L103.047 107.048C102.986 106.958 102.956 106.898 102.896 106.807C101.723 104.852 100.82 102.655 100.188 100.279C94.8028 93.6294 89.3872 86.5591 85.4459 76.811ZM53.524 76.8712C49.5827 86.5591 44.1972 93.6294 38.8418 100.248C38.21 102.625 37.2773 104.852 36.1039 106.837C36.0738 106.898 36.0136 106.988 35.9535 107.048L35.9836 107.078C36.9162 107.59 37.8489 108.191 38.7515 108.883C40.7974 110.448 42.6628 112.403 44.3476 114.871C52.2905 103.287 59.4511 91.3428 63.5429 78.1649C60.1431 77.9242 56.7734 77.503 53.524 76.8712ZM128.951 111.05C125.25 114.329 120.647 116.224 115.773 115.683C112.253 115.322 109.094 113.727 106.537 111.35C105.484 111.862 104.491 112.464 103.558 113.186C98.9848 116.676 94.9833 125.762 92.095 139H139V121.008C138.338 120.166 136.292 117.548 133.193 114.57C131.869 113.276 130.395 112.073 128.951 111.05ZM10.0489 111.08C8.60476 112.073 7.13052 113.276 5.80671 114.57C2.70779 117.548 0.661905 120.166 0 121.008V139H46.905C44.0167 125.762 40.0152 116.676 35.442 113.186C34.5093 112.464 33.5164 111.862 32.4634 111.35C29.9061 113.727 26.7771 115.322 23.2268 115.713C18.3829 116.255 13.7195 114.359 10.0489 111.08Z" fill="white"/>
</svg>
